<mxfile host="Electron" modified="2024-05-08T13:07:38.965Z" agent="Mozilla/5.0 (Windows NT 10.0; Win64; x64) AppleWebKit/537.36 (KHTML, like Gecko) draw.io/24.2.5 Chrome/120.0.6099.109 Electron/28.1.0 Safari/537.36" etag="HzT_q7XffFJhCcyQ7hUh" version="24.2.5" type="device">
  <diagram name="Page-1" id="IfAyXwNqWXgGieFKP367">
    <mxGraphModel dx="600" dy="359" grid="1" gridSize="10" guides="1" tooltips="1" connect="1" arrows="1" fold="1" page="1" pageScale="1" pageWidth="850" pageHeight="1100" math="0" shadow="0">
      <root>
        <mxCell id="0" />
        <mxCell id="1" parent="0" />
        <mxCell id="uamE6JCOvqZ4NAVayqy8-8" style="edgeStyle=orthogonalEdgeStyle;rounded=0;orthogonalLoop=1;jettySize=auto;html=1;entryX=0.413;entryY=0.04;entryDx=0;entryDy=0;entryPerimeter=0;" edge="1" parent="1" source="uamE6JCOvqZ4NAVayqy8-1" target="uamE6JCOvqZ4NAVayqy8-4">
          <mxGeometry relative="1" as="geometry">
            <mxPoint x="510" y="130" as="targetPoint" />
          </mxGeometry>
        </mxCell>
        <mxCell id="uamE6JCOvqZ4NAVayqy8-1" value="Piros" style="rounded=0;whiteSpace=wrap;html=1;" vertex="1" parent="1">
          <mxGeometry x="360" y="90" width="120" height="60" as="geometry" />
        </mxCell>
        <mxCell id="uamE6JCOvqZ4NAVayqy8-5" style="edgeStyle=orthogonalEdgeStyle;rounded=0;orthogonalLoop=1;jettySize=auto;html=1;entryX=0;entryY=0.5;entryDx=0;entryDy=0;" edge="1" parent="1" source="uamE6JCOvqZ4NAVayqy8-2" target="uamE6JCOvqZ4NAVayqy8-1">
          <mxGeometry relative="1" as="geometry">
            <Array as="points">
              <mxPoint x="150" y="120" />
            </Array>
          </mxGeometry>
        </mxCell>
        <mxCell id="uamE6JCOvqZ4NAVayqy8-2" value="sárga" style="rounded=0;whiteSpace=wrap;html=1;" vertex="1" parent="1">
          <mxGeometry x="90" y="290" width="120" height="60" as="geometry" />
        </mxCell>
        <mxCell id="uamE6JCOvqZ4NAVayqy8-7" style="edgeStyle=orthogonalEdgeStyle;rounded=0;orthogonalLoop=1;jettySize=auto;html=1;entryX=0.5;entryY=1;entryDx=0;entryDy=0;" edge="1" parent="1" source="uamE6JCOvqZ4NAVayqy8-3" target="uamE6JCOvqZ4NAVayqy8-2">
          <mxGeometry relative="1" as="geometry" />
        </mxCell>
        <mxCell id="uamE6JCOvqZ4NAVayqy8-3" value="zöld" style="rounded=0;whiteSpace=wrap;html=1;" vertex="1" parent="1">
          <mxGeometry x="360" y="470" width="120" height="60" as="geometry" />
        </mxCell>
        <mxCell id="uamE6JCOvqZ4NAVayqy8-9" style="edgeStyle=orthogonalEdgeStyle;rounded=0;orthogonalLoop=1;jettySize=auto;html=1;entryX=1;entryY=0.75;entryDx=0;entryDy=0;" edge="1" parent="1" source="uamE6JCOvqZ4NAVayqy8-4" target="uamE6JCOvqZ4NAVayqy8-3">
          <mxGeometry relative="1" as="geometry">
            <Array as="points">
              <mxPoint x="690" y="515" />
            </Array>
          </mxGeometry>
        </mxCell>
        <mxCell id="uamE6JCOvqZ4NAVayqy8-4" value="Pirs" style="rounded=0;whiteSpace=wrap;html=1;" vertex="1" parent="1">
          <mxGeometry x="640" y="270" width="120" height="60" as="geometry" />
        </mxCell>
        <mxCell id="uamE6JCOvqZ4NAVayqy8-12" style="edgeStyle=orthogonalEdgeStyle;rounded=0;orthogonalLoop=1;jettySize=auto;html=1;entryX=0.5;entryY=1;entryDx=0;entryDy=0;" edge="1" parent="1" source="uamE6JCOvqZ4NAVayqy8-11" target="uamE6JCOvqZ4NAVayqy8-1">
          <mxGeometry relative="1" as="geometry" />
        </mxCell>
        <mxCell id="uamE6JCOvqZ4NAVayqy8-11" value="" style="ellipse;whiteSpace=wrap;html=1;aspect=fixed;fillColor=#000000;" vertex="1" parent="1">
          <mxGeometry x="410" y="200" width="20" height="20" as="geometry" />
        </mxCell>
        <mxCell id="uamE6JCOvqZ4NAVayqy8-13" value="[t&amp;gt;=60]/t=0" style="text;html=1;align=center;verticalAlign=middle;whiteSpace=wrap;rounded=0;" vertex="1" parent="1">
          <mxGeometry x="520" y="70" width="60" height="30" as="geometry" />
        </mxCell>
        <mxCell id="uamE6JCOvqZ4NAVayqy8-14" value="[t&amp;gt;=5]/t:=0" style="text;html=1;align=center;verticalAlign=middle;whiteSpace=wrap;rounded=0;" vertex="1" parent="1">
          <mxGeometry x="190" y="70" width="60" height="30" as="geometry" />
        </mxCell>
        <mxCell id="uamE6JCOvqZ4NAVayqy8-15" value="[t&amp;gt;=90]/t:=0" style="text;html=1;align=center;verticalAlign=middle;whiteSpace=wrap;rounded=0;" vertex="1" parent="1">
          <mxGeometry x="60" y="400" width="60" height="30" as="geometry" />
        </mxCell>
        <mxCell id="uamE6JCOvqZ4NAVayqy8-16" value="[t&amp;gt;=5]/t:=0" style="text;html=1;align=center;verticalAlign=middle;whiteSpace=wrap;rounded=0;" vertex="1" parent="1">
          <mxGeometry x="720" y="380" width="60" height="30" as="geometry" />
        </mxCell>
        <mxCell id="uamE6JCOvqZ4NAVayqy8-18" style="edgeStyle=orthogonalEdgeStyle;rounded=0;orthogonalLoop=1;jettySize=auto;html=1;entryX=0;entryY=0.25;entryDx=0;entryDy=0;" edge="1" parent="1" source="uamE6JCOvqZ4NAVayqy8-2" target="uamE6JCOvqZ4NAVayqy8-2">
          <mxGeometry relative="1" as="geometry" />
        </mxCell>
        <mxCell id="uamE6JCOvqZ4NAVayqy8-19" style="edgeStyle=orthogonalEdgeStyle;rounded=0;orthogonalLoop=1;jettySize=auto;html=1;entryX=0.14;entryY=-0.093;entryDx=0;entryDy=0;entryPerimeter=0;" edge="1" parent="1" source="uamE6JCOvqZ4NAVayqy8-1" target="uamE6JCOvqZ4NAVayqy8-1">
          <mxGeometry relative="1" as="geometry" />
        </mxCell>
        <mxCell id="uamE6JCOvqZ4NAVayqy8-20" style="edgeStyle=orthogonalEdgeStyle;rounded=0;orthogonalLoop=1;jettySize=auto;html=1;entryX=1;entryY=0.75;entryDx=0;entryDy=0;" edge="1" parent="1" source="uamE6JCOvqZ4NAVayqy8-4" target="uamE6JCOvqZ4NAVayqy8-4">
          <mxGeometry relative="1" as="geometry" />
        </mxCell>
        <mxCell id="uamE6JCOvqZ4NAVayqy8-21" style="edgeStyle=orthogonalEdgeStyle;rounded=0;orthogonalLoop=1;jettySize=auto;html=1;entryX=0.867;entryY=0.013;entryDx=0;entryDy=0;entryPerimeter=0;" edge="1" parent="1" source="uamE6JCOvqZ4NAVayqy8-3" target="uamE6JCOvqZ4NAVayqy8-3">
          <mxGeometry relative="1" as="geometry" />
        </mxCell>
        <mxCell id="uamE6JCOvqZ4NAVayqy8-22" value="[t&amp;lt;5]/t:=t+1" style="text;html=1;align=center;verticalAlign=middle;whiteSpace=wrap;rounded=0;" vertex="1" parent="1">
          <mxGeometry x="190" y="230" width="90" height="30" as="geometry" />
        </mxCell>
        <mxCell id="uamE6JCOvqZ4NAVayqy8-23" value="[t&amp;lt;5]/t:=t+1" style="text;html=1;align=center;verticalAlign=middle;whiteSpace=wrap;rounded=0;" vertex="1" parent="1">
          <mxGeometry x="730" y="210" width="90" height="30" as="geometry" />
        </mxCell>
        <mxCell id="uamE6JCOvqZ4NAVayqy8-24" value="[t&amp;lt;5]/t:=t+1" style="text;html=1;align=center;verticalAlign=middle;whiteSpace=wrap;rounded=0;" vertex="1" parent="1">
          <mxGeometry x="410" y="410" width="90" height="30" as="geometry" />
        </mxCell>
        <mxCell id="uamE6JCOvqZ4NAVayqy8-26" value="[t&amp;lt;5]/t:=t+1" style="text;html=1;align=center;verticalAlign=middle;whiteSpace=wrap;rounded=0;" vertex="1" parent="1">
          <mxGeometry x="390" y="20" width="90" height="30" as="geometry" />
        </mxCell>
        <mxCell id="uamE6JCOvqZ4NAVayqy8-27" value="" style="endArrow=none;html=1;rounded=0;" edge="1" parent="1">
          <mxGeometry width="50" height="50" relative="1" as="geometry">
            <mxPoint x="10" y="600" as="sourcePoint" />
            <mxPoint x="840" y="600" as="targetPoint" />
          </mxGeometry>
        </mxCell>
        <mxCell id="uamE6JCOvqZ4NAVayqy8-34" style="edgeStyle=orthogonalEdgeStyle;rounded=0;orthogonalLoop=1;jettySize=auto;html=1;entryX=0.5;entryY=0;entryDx=0;entryDy=0;" edge="1" parent="1" source="uamE6JCOvqZ4NAVayqy8-29" target="uamE6JCOvqZ4NAVayqy8-31">
          <mxGeometry relative="1" as="geometry" />
        </mxCell>
        <mxCell id="uamE6JCOvqZ4NAVayqy8-29" value="P&lt;div&gt;&lt;br&gt;&lt;/div&gt;&lt;div&gt;do/wait 60 sec&lt;/div&gt;" style="rounded=1;whiteSpace=wrap;html=1;" vertex="1" parent="1">
          <mxGeometry x="620" y="660" width="120" height="60" as="geometry" />
        </mxCell>
        <mxCell id="uamE6JCOvqZ4NAVayqy8-30" style="edgeStyle=orthogonalEdgeStyle;rounded=0;orthogonalLoop=1;jettySize=auto;html=1;entryX=0;entryY=0.5;entryDx=0;entryDy=0;exitX=1;exitY=0.5;exitDx=0;exitDy=0;endArrow=none;endFill=0;" edge="1" parent="1">
          <mxGeometry relative="1" as="geometry">
            <mxPoint x="740" y="689.87" as="sourcePoint" />
            <mxPoint x="620" y="689.87" as="targetPoint" />
            <Array as="points" />
          </mxGeometry>
        </mxCell>
        <mxCell id="uamE6JCOvqZ4NAVayqy8-35" style="edgeStyle=orthogonalEdgeStyle;rounded=0;orthogonalLoop=1;jettySize=auto;html=1;entryX=0.5;entryY=0;entryDx=0;entryDy=0;" edge="1" parent="1" source="uamE6JCOvqZ4NAVayqy8-31" target="uamE6JCOvqZ4NAVayqy8-32">
          <mxGeometry relative="1" as="geometry" />
        </mxCell>
        <mxCell id="uamE6JCOvqZ4NAVayqy8-31" value="P&lt;div&gt;&lt;br&gt;&lt;/div&gt;&lt;div&gt;do/wait 60 sec&lt;/div&gt;" style="rounded=1;whiteSpace=wrap;html=1;" vertex="1" parent="1">
          <mxGeometry x="620" y="780" width="120" height="60" as="geometry" />
        </mxCell>
        <mxCell id="uamE6JCOvqZ4NAVayqy8-36" style="edgeStyle=orthogonalEdgeStyle;rounded=0;orthogonalLoop=1;jettySize=auto;html=1;entryX=0.5;entryY=0;entryDx=0;entryDy=0;" edge="1" parent="1" source="uamE6JCOvqZ4NAVayqy8-32" target="uamE6JCOvqZ4NAVayqy8-33">
          <mxGeometry relative="1" as="geometry" />
        </mxCell>
        <mxCell id="uamE6JCOvqZ4NAVayqy8-32" value="P&lt;div&gt;&lt;br&gt;&lt;/div&gt;&lt;div&gt;do/wait 60 sec&lt;/div&gt;" style="rounded=1;whiteSpace=wrap;html=1;" vertex="1" parent="1">
          <mxGeometry x="620" y="920" width="120" height="60" as="geometry" />
        </mxCell>
        <mxCell id="uamE6JCOvqZ4NAVayqy8-37" style="edgeStyle=orthogonalEdgeStyle;rounded=0;orthogonalLoop=1;jettySize=auto;html=1;entryX=0;entryY=0.5;entryDx=0;entryDy=0;" edge="1" parent="1" source="uamE6JCOvqZ4NAVayqy8-33" target="uamE6JCOvqZ4NAVayqy8-29">
          <mxGeometry relative="1" as="geometry">
            <Array as="points">
              <mxPoint x="600" y="1060" />
              <mxPoint x="600" y="690" />
            </Array>
          </mxGeometry>
        </mxCell>
        <mxCell id="uamE6JCOvqZ4NAVayqy8-33" value="P&lt;div&gt;&lt;br&gt;&lt;/div&gt;&lt;div&gt;do/wait 60 sec&lt;/div&gt;" style="rounded=1;whiteSpace=wrap;html=1;" vertex="1" parent="1">
          <mxGeometry x="620" y="1030" width="120" height="60" as="geometry" />
        </mxCell>
        <mxCell id="uamE6JCOvqZ4NAVayqy8-38" style="edgeStyle=orthogonalEdgeStyle;rounded=0;orthogonalLoop=1;jettySize=auto;html=1;" edge="1" parent="1" source="uamE6JCOvqZ4NAVayqy8-39">
          <mxGeometry relative="1" as="geometry">
            <mxPoint x="660" y="660" as="targetPoint" />
          </mxGeometry>
        </mxCell>
        <mxCell id="uamE6JCOvqZ4NAVayqy8-39" value="" style="ellipse;whiteSpace=wrap;html=1;aspect=fixed;fillColor=#000000;" vertex="1" parent="1">
          <mxGeometry x="650" y="620" width="20" height="20" as="geometry" />
        </mxCell>
        <mxCell id="uamE6JCOvqZ4NAVayqy8-40" value="" style="endArrow=none;html=1;rounded=0;" edge="1" parent="1">
          <mxGeometry width="50" height="50" relative="1" as="geometry">
            <mxPoint x="5" y="1110" as="sourcePoint" />
            <mxPoint x="835" y="1110" as="targetPoint" />
          </mxGeometry>
        </mxCell>
        <mxCell id="uamE6JCOvqZ4NAVayqy8-48" style="edgeStyle=orthogonalEdgeStyle;rounded=0;orthogonalLoop=1;jettySize=auto;html=1;entryX=0.339;entryY=0.025;entryDx=0;entryDy=0;entryPerimeter=0;" edge="1" parent="1" source="uamE6JCOvqZ4NAVayqy8-41" target="uamE6JCOvqZ4NAVayqy8-42">
          <mxGeometry relative="1" as="geometry">
            <Array as="points">
              <mxPoint x="370" y="1360" />
            </Array>
          </mxGeometry>
        </mxCell>
        <mxCell id="uamE6JCOvqZ4NAVayqy8-41" value="&lt;div style=&quot;&quot;&gt;üres&lt;/div&gt;" style="rounded=0;whiteSpace=wrap;html=1;align=center;" vertex="1" parent="1">
          <mxGeometry x="330" y="1230" width="120" height="60" as="geometry" />
        </mxCell>
        <mxCell id="uamE6JCOvqZ4NAVayqy8-49" style="edgeStyle=orthogonalEdgeStyle;rounded=0;orthogonalLoop=1;jettySize=auto;html=1;entryX=0.5;entryY=1;entryDx=0;entryDy=0;" edge="1" parent="1" source="uamE6JCOvqZ4NAVayqy8-42" target="uamE6JCOvqZ4NAVayqy8-41">
          <mxGeometry relative="1" as="geometry" />
        </mxCell>
        <mxCell id="uamE6JCOvqZ4NAVayqy8-42" value="kortes" style="rounded=0;whiteSpace=wrap;html=1;" vertex="1" parent="1">
          <mxGeometry x="330" y="1430" width="120" height="60" as="geometry" />
        </mxCell>
        <mxCell id="uamE6JCOvqZ4NAVayqy8-43" value="Telj" style="rounded=0;whiteSpace=wrap;html=1;" vertex="1" parent="1">
          <mxGeometry x="330" y="1640" width="120" height="60" as="geometry" />
        </mxCell>
        <mxCell id="uamE6JCOvqZ4NAVayqy8-45" style="edgeStyle=orthogonalEdgeStyle;rounded=0;orthogonalLoop=1;jettySize=auto;html=1;entryX=0;entryY=0.5;entryDx=0;entryDy=0;strokeColor=default;" edge="1" parent="1" source="uamE6JCOvqZ4NAVayqy8-44" target="uamE6JCOvqZ4NAVayqy8-41">
          <mxGeometry relative="1" as="geometry" />
        </mxCell>
        <mxCell id="uamE6JCOvqZ4NAVayqy8-44" value="" style="ellipse;whiteSpace=wrap;html=1;aspect=fixed;fillColor=#000000;" vertex="1" parent="1">
          <mxGeometry x="100" y="1245" width="30" height="30" as="geometry" />
        </mxCell>
        <mxCell id="uamE6JCOvqZ4NAVayqy8-46" value="Push(e)/c:=c+1, t[ ] := e" style="text;html=1;align=center;verticalAlign=middle;whiteSpace=wrap;rounded=0;" vertex="1" parent="1">
          <mxGeometry x="167" y="1280" width="130" height="30" as="geometry" />
        </mxCell>
        <mxCell id="uamE6JCOvqZ4NAVayqy8-47" value="pop()[c:=1]/c:=c-1" style="text;html=1;align=center;verticalAlign=middle;whiteSpace=wrap;rounded=0;" vertex="1" parent="1">
          <mxGeometry x="510" y="1245" width="130" height="30" as="geometry" />
        </mxCell>
        <mxCell id="uamE6JCOvqZ4NAVayqy8-50" style="edgeStyle=orthogonalEdgeStyle;rounded=0;orthogonalLoop=1;jettySize=auto;html=1;exitX=1;exitY=0.25;exitDx=0;exitDy=0;" edge="1" parent="1" source="uamE6JCOvqZ4NAVayqy8-42" target="uamE6JCOvqZ4NAVayqy8-42">
          <mxGeometry relative="1" as="geometry" />
        </mxCell>
        <mxCell id="uamE6JCOvqZ4NAVayqy8-51" style="edgeStyle=orthogonalEdgeStyle;rounded=0;orthogonalLoop=1;jettySize=auto;html=1;entryX=0.001;entryY=0.6;entryDx=0;entryDy=0;entryPerimeter=0;exitX=-0.028;exitY=0.146;exitDx=0;exitDy=0;exitPerimeter=0;" edge="1" parent="1" source="uamE6JCOvqZ4NAVayqy8-42" target="uamE6JCOvqZ4NAVayqy8-42">
          <mxGeometry relative="1" as="geometry">
            <Array as="points">
              <mxPoint x="290" y="1439" />
              <mxPoint x="290" y="1466" />
            </Array>
          </mxGeometry>
        </mxCell>
        <mxCell id="uamE6JCOvqZ4NAVayqy8-52" value="Push(e)/c:=c+1, t[c] := e" style="text;html=1;align=center;verticalAlign=middle;whiteSpace=wrap;rounded=0;" vertex="1" parent="1">
          <mxGeometry x="155" y="1445" width="130" height="30" as="geometry" />
        </mxCell>
        <mxCell id="uamE6JCOvqZ4NAVayqy8-53" value="pop()/c:=c-1" style="text;html=1;align=center;verticalAlign=middle;whiteSpace=wrap;rounded=0;" vertex="1" parent="1">
          <mxGeometry x="490" y="1470" width="130" height="30" as="geometry" />
        </mxCell>
        <mxCell id="uamE6JCOvqZ4NAVayqy8-54" style="edgeStyle=orthogonalEdgeStyle;rounded=0;orthogonalLoop=1;jettySize=auto;html=1;" edge="1" parent="1">
          <mxGeometry relative="1" as="geometry">
            <mxPoint x="351" y="1490" as="sourcePoint" />
            <mxPoint x="349" y="1642" as="targetPoint" />
            <Array as="points">
              <mxPoint x="351" y="1560" />
              <mxPoint x="350" y="1560" />
              <mxPoint x="350" y="1642" />
            </Array>
          </mxGeometry>
        </mxCell>
        <mxCell id="uamE6JCOvqZ4NAVayqy8-55" style="edgeStyle=orthogonalEdgeStyle;rounded=0;orthogonalLoop=1;jettySize=auto;html=1;entryX=0.5;entryY=1;entryDx=0;entryDy=0;exitX=0.334;exitY=-0.039;exitDx=0;exitDy=0;exitPerimeter=0;" edge="1" parent="1" source="uamE6JCOvqZ4NAVayqy8-43">
          <mxGeometry relative="1" as="geometry">
            <mxPoint x="370" y="1630" as="sourcePoint" />
            <mxPoint x="370" y="1490" as="targetPoint" />
          </mxGeometry>
        </mxCell>
        <mxCell id="uamE6JCOvqZ4NAVayqy8-56" value="Push(e)/c:=c+1, t[c] := e" style="text;html=1;align=center;verticalAlign=middle;whiteSpace=wrap;rounded=0;" vertex="1" parent="1">
          <mxGeometry x="190" y="1550" width="130" height="30" as="geometry" />
        </mxCell>
        <mxCell id="uamE6JCOvqZ4NAVayqy8-57" value="pop()/c:=c-1" style="text;html=1;align=center;verticalAlign=middle;whiteSpace=wrap;rounded=0;" vertex="1" parent="1">
          <mxGeometry x="360" y="1560" width="130" height="30" as="geometry" />
        </mxCell>
        <mxCell id="uamE6JCOvqZ4NAVayqy8-59" style="edgeStyle=orthogonalEdgeStyle;rounded=0;orthogonalLoop=1;jettySize=auto;html=1;entryX=0.001;entryY=0.6;entryDx=0;entryDy=0;entryPerimeter=0;exitX=-0.028;exitY=0.146;exitDx=0;exitDy=0;exitPerimeter=0;" edge="1" parent="1">
          <mxGeometry relative="1" as="geometry">
            <mxPoint x="327" y="1656.5" as="sourcePoint" />
            <mxPoint x="330" y="1683.5" as="targetPoint" />
            <Array as="points">
              <mxPoint x="290" y="1656.5" />
              <mxPoint x="290" y="1683.5" />
            </Array>
          </mxGeometry>
        </mxCell>
        <mxCell id="uamE6JCOvqZ4NAVayqy8-60" style="edgeStyle=orthogonalEdgeStyle;rounded=0;orthogonalLoop=1;jettySize=auto;html=1;entryX=0.413;entryY=-0.018;entryDx=0;entryDy=0;entryPerimeter=0;exitX=0.75;exitY=0;exitDx=0;exitDy=0;" edge="1" parent="1" source="uamE6JCOvqZ4NAVayqy8-41" target="uamE6JCOvqZ4NAVayqy8-41">
          <mxGeometry relative="1" as="geometry">
            <mxPoint x="367" y="1180" as="sourcePoint" />
            <mxPoint x="370" y="1207" as="targetPoint" />
            <Array as="points">
              <mxPoint x="420" y="1180" />
              <mxPoint x="380" y="1180" />
            </Array>
          </mxGeometry>
        </mxCell>
        <mxCell id="uamE6JCOvqZ4NAVayqy8-61" value="push(e)/error" style="text;html=1;align=center;verticalAlign=middle;whiteSpace=wrap;rounded=0;" vertex="1" parent="1">
          <mxGeometry x="325" y="1720" width="130" height="30" as="geometry" />
        </mxCell>
        <mxCell id="uamE6JCOvqZ4NAVayqy8-62" value="pop()/error" style="text;html=1;align=center;verticalAlign=middle;whiteSpace=wrap;rounded=0;" vertex="1" parent="1">
          <mxGeometry x="340" y="1140" width="130" height="30" as="geometry" />
        </mxCell>
        <mxCell id="uamE6JCOvqZ4NAVayqy8-63" value="push(e)/error" style="text;html=1;align=center;verticalAlign=middle;whiteSpace=wrap;rounded=0;" vertex="1" parent="1">
          <mxGeometry x="345" y="1740" width="130" height="30" as="geometry" />
        </mxCell>
        <mxCell id="uamE6JCOvqZ4NAVayqy8-64" value="" style="endArrow=none;html=1;rounded=0;" edge="1" parent="1">
          <mxGeometry width="50" height="50" relative="1" as="geometry">
            <mxPoint x="5" y="1790" as="sourcePoint" />
            <mxPoint x="835" y="1790" as="targetPoint" />
          </mxGeometry>
        </mxCell>
        <mxCell id="uamE6JCOvqZ4NAVayqy8-67" value="" style="rounded=0;whiteSpace=wrap;html=1;" vertex="1" parent="1">
          <mxGeometry x="230" y="1860" width="200" height="200" as="geometry" />
        </mxCell>
        <mxCell id="uamE6JCOvqZ4NAVayqy8-68" style="edgeStyle=orthogonalEdgeStyle;rounded=0;orthogonalLoop=1;jettySize=auto;html=1;entryX=0.997;entryY=0.519;entryDx=0;entryDy=0;entryPerimeter=0;exitX=0;exitY=0.5;exitDx=0;exitDy=0;endArrow=none;endFill=0;" edge="1" parent="1">
          <mxGeometry relative="1" as="geometry">
            <mxPoint x="230" y="1900" as="sourcePoint" />
            <mxPoint x="429.4000000000001" y="1903.8000000000002" as="targetPoint" />
            <Array as="points">
              <mxPoint x="429" y="1900" />
              <mxPoint x="429" y="1904" />
            </Array>
          </mxGeometry>
        </mxCell>
        <mxCell id="uamE6JCOvqZ4NAVayqy8-69" value="Merge" style="rounded=0;whiteSpace=wrap;html=1;" vertex="1" parent="1">
          <mxGeometry x="240" y="1980" width="50" height="30" as="geometry" />
        </mxCell>
        <mxCell id="uamE6JCOvqZ4NAVayqy8-70" value="Ajtó" style="rounded=0;whiteSpace=wrap;html=1;" vertex="1" parent="1">
          <mxGeometry x="310" y="1980" width="50" height="30" as="geometry" />
        </mxCell>
        <mxCell id="uamE6JCOvqZ4NAVayqy8-71" value="Haér" style="rounded=0;whiteSpace=wrap;html=1;" vertex="1" parent="1">
          <mxGeometry x="375" y="1980" width="50" height="30" as="geometry" />
        </mxCell>
        <mxCell id="uamE6JCOvqZ4NAVayqy8-72" value="Multi" style="text;html=1;align=center;verticalAlign=middle;whiteSpace=wrap;rounded=0;" vertex="1" parent="1">
          <mxGeometry x="297" y="1860" width="60" height="30" as="geometry" />
        </mxCell>
        <mxCell id="uamE6JCOvqZ4NAVayqy8-73" value="" style="endArrow=none;dashed=1;html=1;rounded=0;exitX=0.341;exitY=1.006;exitDx=0;exitDy=0;exitPerimeter=0;" edge="1" parent="1" source="uamE6JCOvqZ4NAVayqy8-67">
          <mxGeometry width="50" height="50" relative="1" as="geometry">
            <mxPoint x="240" y="1950" as="sourcePoint" />
            <mxPoint x="300" y="1900" as="targetPoint" />
          </mxGeometry>
        </mxCell>
        <mxCell id="uamE6JCOvqZ4NAVayqy8-74" value="" style="endArrow=none;dashed=1;html=1;rounded=0;exitX=0.341;exitY=1.006;exitDx=0;exitDy=0;exitPerimeter=0;" edge="1" parent="1">
          <mxGeometry width="50" height="50" relative="1" as="geometry">
            <mxPoint x="370" y="2060" as="sourcePoint" />
            <mxPoint x="372" y="1899" as="targetPoint" />
          </mxGeometry>
        </mxCell>
        <mxCell id="uamE6JCOvqZ4NAVayqy8-75" value="- taroló&lt;div&gt;push-őoő&amp;nbsp;&lt;/div&gt;" style="text;html=1;align=center;verticalAlign=middle;whiteSpace=wrap;rounded=0;" vertex="1" parent="1">
          <mxGeometry x="520" y="1830" width="60" height="30" as="geometry" />
        </mxCell>
      </root>
    </mxGraphModel>
  </diagram>
</mxfile>
